<svg width="84" height="84" viewBox="0 0 84 84" fill="none" xmlns="http://www.w3.org/2000/svg">
<circle cx="42" cy="42" r="42" fill="#F9B300"/>
<path d="M48.5455 57V53.6667C48.5455 51.8986 47.8558 50.2029 46.6283 48.9526C45.4008 47.7024 43.736 47 42 47H30.5455C28.8095 47 27.1446 47.7024 25.9171 48.9526C24.6896 50.2029 24 51.8986 24 53.6667V57M50.1818 40.3333L53.4545 43.6667L60 37M42.8182 33.6667C42.8182 37.3486 39.8877 40.3333 36.2727 40.3333C32.6578 40.3333 29.7273 37.3486 29.7273 33.6667C29.7273 29.9848 32.6578 27 36.2727 27C39.8877 27 42.8182 29.9848 42.8182 33.6667Z" stroke="white" stroke-width="3" stroke-linecap="round" stroke-linejoin="round"/>
</svg>
