<svg width="84" height="84" viewBox="0 0 84 84" fill="none" xmlns="http://www.w3.org/2000/svg">
<circle cx="42" cy="42" r="42" fill="#F9B300"/>
<path d="M50.619 37.5H52.0952C53.6613 37.5 55.1632 38.1321 56.2705 39.2574C57.3779 40.3826 58 41.9087 58 43.5C58 45.0913 57.3779 46.6174 56.2705 47.7426C55.1632 48.8679 53.6613 49.5 52.0952 49.5H50.619M50.619 37.5H27V51C27 52.5913 27.6221 54.1174 28.7295 55.2426C29.8368 56.3679 31.3387 57 32.9048 57H44.7143C46.2803 57 47.7822 56.3679 48.8896 55.2426C49.9969 54.1174 50.619 52.5913 50.619 51V37.5ZM32.9048 27V31.5M38.8095 27V31.5M44.7143 27V31.5" stroke="white" stroke-width="3" stroke-linecap="round" stroke-linejoin="round"/>
</svg>
